<svg xmlns="http://www.w3.org/2000/svg" version="1.1" xmlns:xlink="http://www.w3.org/1999/xlink" xmlns:svgjs="http://svgjs.dev/svgjs" width="1500" height="1500" viewBox="0 0 1500 1500"><rect width="1500" height="1500" fill="#ffffff"></rect><g transform="matrix(0.6666666666666666,0,0,0.6666666666666666,249.39393939393938,557.4619193131261)"><svg viewBox="0 0 396 153" data-background-color="#ffc374" preserveAspectRatio="xMidYMid meet" height="579" width="1500" xmlns="http://www.w3.org/2000/svg" xmlns:xlink="http://www.w3.org/1999/xlink"><g id="tight-bounds" transform="matrix(1,0,0,1,0.2400000000000091,-0.18309237022877767)"><svg viewBox="0 0 395.52 153.36618474045756" height="153.36618474045756" width="395.52"><g><svg viewBox="0 0 661.9327255828126 256.6699450786009" height="153.36618474045756" width="395.52"><g><svg viewBox="0 0 395.52 256.6699450786009" height="256.6699450786009" width="395.52"><g id="textblocktransform"><svg viewBox="0 0 395.52 256.6699450786009" height="256.6699450786009" width="395.52" id="textblock"><g><svg viewBox="0 0 395.52 200.50684426157238" height="200.50684426157238" width="395.52"><g transform="matrix(1,0,0,1,0,0)"><svg width="395.52" viewBox="2.199999999999995 -35.62 167.84 78.46" height="200.50684426157238" data-palette-color="#124076"><svg></svg><svg></svg><g class="wordmark-text-0" data-fill-palette-color="primary" id="text-0"><path d="M18.6-5.98v0c1.193 0 2.127-0.123 2.8-0.37 0.673-0.24 1.197-0.54 1.57-0.9 0.38-0.36 0.707-0.72 0.98-1.08v0c0.26-0.32 0.477-0.563 0.65-0.73 0.167-0.16 0.407-0.273 0.72-0.34v0c0.26-0.08 0.677-0.133 1.25-0.16 0.58-0.02 1.16-0.03 1.74-0.03 0.573 0 0.977 0.013 1.21 0.04v0c0.34 0.02 0.573 0.087 0.7 0.2v0c0.133 0.113 0.217 0.357 0.25 0.73v0c0.047 0.52 0.073 1.14 0.08 1.86 0.013 0.713 0.003 1.33-0.03 1.85v0c-0.02 0.167-0.05 0.307-0.09 0.42-0.04 0.113-0.123 0.283-0.25 0.51v0c-0.167 0.26-0.487 0.64-0.96 1.14-0.467 0.493-1.157 1.003-2.07 1.53-0.913 0.533-2.09 0.987-3.53 1.36-1.44 0.373-3.21 0.56-5.31 0.56v0c-2.247 0-4.347-0.29-6.3-0.87-1.953-0.573-3.667-1.543-5.14-2.91-1.473-1.367-2.62-3.217-3.44-5.55-0.82-2.327-1.23-5.23-1.23-8.71v0c0-3.873 0.67-7.167 2.01-9.88 1.347-2.707 3.257-4.77 5.73-6.19 2.473-1.413 5.403-2.12 8.79-2.12v0c2.373 0 4.28 0.243 5.72 0.73 1.44 0.487 2.533 1.06 3.28 1.72 0.753 0.66 1.283 1.233 1.59 1.72v0c0.113 0.18 0.197 0.34 0.25 0.48 0.047 0.14 0.077 0.357 0.09 0.65v0c0.053 0.387 0.067 0.957 0.04 1.71-0.027 0.747-0.087 1.403-0.18 1.97v0c-0.067 0.36-0.173 0.597-0.32 0.71v0c-0.067 0.067-0.18 0.123-0.34 0.17-0.167 0.053-0.41 0.08-0.73 0.08v0c-0.527 0-1.113-0.02-1.76-0.06-0.653-0.047-1.143-0.093-1.47-0.14v0c-0.387-0.067-0.67-0.16-0.85-0.28-0.18-0.12-0.36-0.31-0.54-0.57v0c-0.293-0.427-0.797-0.917-1.51-1.47-0.72-0.553-1.9-0.83-3.54-0.83v0c-2.313 0-4.22 0.893-5.72 2.68-1.493 1.78-2.24 4.663-2.24 8.65v0c0 3.973 0.783 6.92 2.35 8.84 1.573 1.92 3.49 2.88 5.75 2.88zM47.31 0.61v0c-4.1 0-7.347-1.09-9.74-3.27-2.393-2.18-3.59-5.427-3.59-9.74v0c0-4.427 1.243-7.737 3.73-9.93 2.48-2.187 5.797-3.28 9.95-3.28v0c4 0 7.207 1.077 9.62 3.23 2.407 2.16 3.61 5.34 3.61 9.54v0c0 4.38-1.203 7.717-3.61 10.01-2.413 2.293-5.737 3.44-9.97 3.44zM47.56-5.3v0c1.787 0 3.137-0.557 4.05-1.67 0.913-1.113 1.37-3.023 1.37-5.73v0c0-2.567-0.46-4.377-1.38-5.43-0.92-1.047-2.283-1.57-4.09-1.57v0c-1.74 0-3.11 0.563-4.11 1.69-1.007 1.133-1.51 2.97-1.51 5.51v0c0 2.653 0.477 4.517 1.43 5.59 0.953 1.073 2.367 1.61 4.24 1.61zM74.85 0.61v0c-5.793 0-8.69-3.507-8.69-10.52v0l-0.02-12.4c0-0.393 0.08-0.697 0.24-0.91v0c0.687-0.893 1.687-1.86 3-2.9v0c0.233-0.167 0.44-0.25 0.62-0.25v0c0.207 0 0.41 0.083 0.61 0.25v0c0.7 0.533 1.29 1.037 1.77 1.51 0.48 0.473 0.89 0.937 1.23 1.39v0c0.16 0.213 0.24 0.517 0.24 0.91v0 11.71c0 3.533 1.4 5.3 4.2 5.3v0c1.387 0 2.493-0.483 3.32-1.45 0.833-0.967 1.25-2.28 1.25-3.94v0-11.62c0-0.393 0.08-0.697 0.24-0.91v0c0.687-0.893 1.687-1.86 3-2.9v0c0.233-0.167 0.437-0.25 0.61-0.25v0c0.213 0 0.417 0.083 0.61 0.25v0c0.7 0.533 1.29 1.037 1.77 1.51 0.487 0.473 0.9 0.937 1.24 1.39v0c0.16 0.213 0.24 0.517 0.24 0.91v0 21.19c0 0.307-0.107 0.57-0.32 0.79-0.207 0.22-0.473 0.33-0.8 0.33v0h-3.66c-0.26 0-0.493-0.037-0.7-0.11-0.2-0.073-0.39-0.217-0.57-0.43v0l-1.52-1.95h-0.17c-0.26 0.373-0.663 0.803-1.21 1.29-0.54 0.493-1.327 0.917-2.36 1.27-1.033 0.36-2.423 0.54-4.17 0.54zM104.64-22.17v1.81h0.1c1.22-3.387 3.417-5.08 6.59-5.08v0c0.407 0 0.74 0.02 1 0.06 0.26 0.04 0.44 0.077 0.54 0.11v0c0.24 0.08 0.36 0.267 0.36 0.56v0 5.89c0 0.5-0.293 0.637-0.88 0.41v0c-0.193-0.08-0.473-0.163-0.84-0.25-0.367-0.093-0.873-0.14-1.52-0.14v0c-1.68 0-2.993 0.613-3.94 1.84-0.94 1.233-1.41 2.907-1.41 5.02v0 10.65c0 0.487-0.103 0.823-0.31 1.01-0.2 0.187-0.543 0.28-1.03 0.28v0h-5.03c-0.493 0-0.84-0.093-1.04-0.28-0.207-0.187-0.31-0.523-0.31-1.01v0-20.46c0-0.393 0.083-0.697 0.25-0.91v0c0.34-0.453 0.75-0.917 1.23-1.39 0.48-0.473 1.07-0.977 1.77-1.51v0c0.133-0.1 0.263-0.167 0.39-0.2 0.133-0.033 0.247-0.05 0.34-0.05v0c0.233 0 0.463 0.083 0.69 0.25v0c1.347 1.06 2.29 1.963 2.83 2.71v0c0.147 0.193 0.22 0.42 0.22 0.68zM123.83 0.61v0c-1.74 0-3.187-0.147-4.34-0.44-1.147-0.293-2.063-0.647-2.75-1.06-0.693-0.413-1.237-0.793-1.63-1.14v0c-0.293-0.273-0.327-0.58-0.1-0.92v0l2.49-3.69c0.36-0.52 0.77-0.553 1.23-0.1v0c0.467 0.46 1.103 0.903 1.91 1.33 0.807 0.433 1.813 0.65 3.02 0.65v0c1.073 0 1.957-0.183 2.65-0.55 0.687-0.367 1.03-0.9 1.03-1.6v0c0-0.487-0.153-0.887-0.46-1.2-0.307-0.307-0.853-0.623-1.64-0.95-0.78-0.327-1.87-0.74-3.27-1.24v0c-2.067-0.753-3.627-1.657-4.68-2.71-1.06-1.06-1.59-2.607-1.59-4.64v0c0-1.873 0.517-3.397 1.55-4.57 1.033-1.167 2.36-2.023 3.98-2.57 1.62-0.547 3.307-0.82 5.06-0.82v0c2.233 0 3.8 0.207 4.7 0.62 0.907 0.413 1.49 0.737 1.75 0.97v0c0.247 0.207 0.417 0.45 0.51 0.73v0c0.213 0.633 0.377 1.47 0.49 2.51v0c0.067 0.607-0.087 1.007-0.46 1.2v0c-0.2 0.113-0.51 0.237-0.93 0.37-0.427 0.127-0.85 0.24-1.27 0.34-0.427 0.093-0.743 0.14-0.95 0.14v0c-0.067 0-0.137-0.02-0.21-0.06-0.073-0.04-0.2-0.14-0.38-0.3v0c-0.213-0.213-0.577-0.457-1.09-0.73-0.507-0.28-1.21-0.42-2.11-0.42v0c-0.88 0-1.617 0.143-2.21 0.43-0.593 0.287-0.89 0.787-0.89 1.5v0c0 0.78 0.38 1.367 1.14 1.76 0.753 0.387 2.003 0.89 3.75 1.51v0c1.367 0.473 2.557 0.99 3.57 1.55 1.02 0.56 1.807 1.293 2.36 2.2 0.553 0.9 0.83 2.117 0.83 3.65v0c0 1.987-0.543 3.587-1.63 4.8-1.08 1.207-2.463 2.083-4.15 2.63-1.68 0.547-3.44 0.82-5.28 0.82zM151.9 0.61v0c-2.747 0-5.137-0.443-7.17-1.33-2.04-0.887-3.62-2.267-4.74-4.14-1.12-1.873-1.68-4.29-1.68-7.25v0c0-4.44 1.137-7.8 3.41-10.08 2.28-2.28 5.31-3.42 9.09-3.42v0c2.453 0 4.53 0.44 6.23 1.32 1.7 0.88 2.997 2.093 3.89 3.64 0.887 1.547 1.33 3.31 1.33 5.29v0c0 1.94-0.497 3.293-1.49 4.06-0.993 0.76-2.443 1.14-4.35 1.14v0h-10.47c0.127 1.68 0.74 2.96 1.84 3.84 1.1 0.88 2.593 1.32 4.48 1.32v0c1.5 0 2.7-0.227 3.6-0.68 0.907-0.447 1.537-0.8 1.89-1.06v0c0.313-0.227 0.663-0.333 1.05-0.32v0c0.313 0 0.757 0.063 1.33 0.19 0.58 0.12 1.157 0.343 1.73 0.67v0c0.407 0.213 0.61 0.507 0.61 0.88v0c0 0.213-0.043 0.513-0.13 0.9v0c-0.047 0.227-0.127 0.557-0.24 0.99-0.113 0.433-0.26 0.837-0.44 1.21v0c-0.1 0.18-0.253 0.35-0.46 0.51v0c-0.327 0.227-0.853 0.527-1.58 0.9-0.727 0.38-1.713 0.71-2.96 0.99-1.253 0.287-2.843 0.43-4.77 0.43zM145.9-15.16v0h7.96c0.827 0 1.24-0.383 1.24-1.15v0c0-1.153-0.36-2.127-1.08-2.92-0.727-0.787-1.813-1.18-3.26-1.18v0c-1.58 0-2.74 0.503-3.48 1.51-0.74 1.013-1.2 2.26-1.38 3.74z" fill="#000000" fill-rule="nonzero" stroke="none" stroke-width="1" stroke-linecap="butt" stroke-linejoin="miter" stroke-miterlimit="10" stroke-dasharray="" stroke-dashoffset="0" font-family="none" font-weight="none" font-size="none" text-anchor="none" style="mix-blend-mode: normal" data-fill-palette-color="primary" opacity="1"></path><path transform="translate(0,42.11)" d="M17.36 0h-7.42c-1.68 0-2.953-0.21-3.82-0.63-0.873-0.427-1.46-1.12-1.76-2.08-0.3-0.96-0.45-2.237-0.45-3.83v0-21.93c0-1.627 0.15-2.917 0.45-3.87 0.3-0.947 0.887-1.63 1.76-2.05 0.867-0.413 2.14-0.62 3.82-0.62v0h6.71c3.907 0 6.91 0.717 9.01 2.15 2.1 1.433 3.15 3.45 3.15 6.05v0c0 1.287-0.293 2.46-0.88 3.52-0.587 1.06-1.357 1.963-2.31 2.71-0.953 0.747-1.99 1.307-3.11 1.68v0 0.1c1.433 0.193 2.727 0.66 3.88 1.4 1.16 0.747 2.083 1.71 2.77 2.89 0.693 1.18 1.04 2.533 1.04 4.06v0c0 2.28-0.55 4.197-1.65 5.75-1.1 1.553-2.613 2.727-4.54 3.52-1.927 0.787-4.143 1.18-6.65 1.18zM11.79-26.17v17.31c0 1.087 0.197 1.867 0.59 2.34 0.387 0.473 1.12 0.71 2.2 0.71v0h1.85c1.647 0 2.97-0.423 3.97-1.27 1-0.847 1.5-2.003 1.5-3.47v0c0-1.4-0.49-2.497-1.47-3.29-0.973-0.8-2.233-1.2-3.78-1.2v0h0.02c-0.387 0-0.677-0.057-0.87-0.17v0c-0.427-0.28-0.863-0.6-1.31-0.96-0.447-0.367-0.93-0.81-1.45-1.33v0c-0.167-0.213-0.25-0.37-0.25-0.47v0c0-0.127 0.083-0.28 0.25-0.46v0c0.52-0.52 1.003-0.97 1.45-1.35 0.447-0.373 0.883-0.69 1.31-0.95v0c0.227-0.113 0.517-0.17 0.87-0.17v0h-0.02c0.96 0 1.843-0.357 2.65-1.07 0.807-0.72 1.21-1.843 1.21-3.37v0c0-1.547-0.433-2.577-1.3-3.09-0.86-0.513-1.967-0.77-3.32-0.77v0h-1.31c-1.08 0-1.813 0.227-2.2 0.68-0.393 0.46-0.59 1.243-0.59 2.35zM44.17 0.61v0c-5.8 0-8.7-3.507-8.7-10.52v0l-0.02-12.4c0-0.393 0.08-0.697 0.24-0.91v0c0.687-0.893 1.69-1.86 3.01-2.9v0c0.227-0.167 0.43-0.25 0.61-0.25v0c0.207 0 0.41 0.083 0.61 0.25v0c0.7 0.533 1.29 1.037 1.77 1.51 0.48 0.473 0.89 0.937 1.23 1.39v0c0.16 0.213 0.24 0.517 0.24 0.91v0 11.71c0 3.533 1.4 5.3 4.2 5.3v0c1.387 0 2.493-0.483 3.32-1.45 0.833-0.967 1.25-2.28 1.25-3.94v0-11.62c0-0.393 0.08-0.697 0.24-0.91v0c0.687-0.893 1.69-1.86 3.01-2.9v0c0.227-0.167 0.43-0.25 0.61-0.25v0c0.207 0 0.41 0.083 0.61 0.25v0c0.7 0.533 1.29 1.037 1.77 1.51 0.48 0.473 0.89 0.937 1.23 1.39v0c0.16 0.213 0.24 0.517 0.24 0.91v0 21.19c0 0.307-0.103 0.57-0.31 0.79-0.213 0.22-0.483 0.33-0.81 0.33v0h-3.66c-0.26 0-0.493-0.037-0.7-0.11-0.2-0.073-0.39-0.217-0.57-0.43v0l-1.51-1.95h-0.18c-0.26 0.373-0.66 0.803-1.2 1.29-0.547 0.493-1.337 0.917-2.37 1.27-1.033 0.36-2.42 0.54-4.16 0.54zM65.11-33.2v0c0-0.213 0.067-0.4 0.2-0.56 0.127-0.167 0.297-0.38 0.51-0.64v0c0.453-0.52 0.983-1.07 1.59-1.65 0.6-0.573 1.21-1.13 1.83-1.67v0c0.387-0.307 0.68-0.46 0.88-0.46v0c0.193 0 0.493 0.153 0.9 0.46v0c1.32 1.14 2.443 2.247 3.37 3.32v0c0.213 0.247 0.387 0.453 0.52 0.62 0.14 0.173 0.21 0.367 0.21 0.58v0c0 0.207-0.07 0.393-0.21 0.56-0.133 0.16-0.313 0.38-0.54 0.66v0c-0.44 0.5-0.953 1.04-1.54 1.62-0.587 0.58-1.19 1.13-1.81 1.65v0c-0.227 0.193-0.407 0.32-0.54 0.38-0.127 0.053-0.247 0.08-0.36 0.08v0c-0.113 0-0.233-0.027-0.36-0.08-0.12-0.06-0.31-0.187-0.57-0.38v0c-0.653-0.52-1.263-1.07-1.83-1.65-0.573-0.58-1.087-1.137-1.54-1.67v0c-0.213-0.26-0.383-0.467-0.51-0.62-0.133-0.16-0.2-0.343-0.2-0.55zM73.95-23.71v22.42c0 0.487-0.1 0.823-0.3 1.01-0.207 0.187-0.553 0.28-1.04 0.28v0h-5.03c-0.487 0-0.833-0.093-1.04-0.28-0.2-0.187-0.3-0.523-0.3-1.01v0-22.42c0-0.487 0.1-0.823 0.3-1.01 0.207-0.187 0.553-0.28 1.04-0.28v0h5.03c0.487 0 0.833 0.093 1.04 0.28 0.2 0.187 0.3 0.523 0.3 1.01zM88.89-1.83l-5.1 2.34c-0.34 0.147-0.583 0.22-0.73 0.22v0c-0.147 0-0.303-0.057-0.47-0.17v0c-0.373-0.26-0.8-0.897-1.28-1.91-0.48-1.02-0.72-2.587-0.72-4.7v0-28.28c0-0.387 0.08-0.687 0.24-0.9v0c0.687-0.893 1.69-1.86 3.01-2.9v0c0.227-0.167 0.43-0.25 0.61-0.25v0c0.213 0 0.417 0.083 0.61 0.25v0c0.7 0.533 1.29 1.037 1.77 1.51 0.48 0.473 0.89 0.937 1.23 1.39v0c0.167 0.213 0.25 0.513 0.25 0.9v0 26.79c0 1.073 0.087 1.987 0.26 2.74 0.18 0.76 0.393 1.367 0.64 1.82v0c0.273 0.54 0.167 0.923-0.32 1.15zM103.83 0.61v0c-2.16 0-4.003-0.533-5.53-1.6-1.52-1.067-2.673-2.54-3.46-4.42-0.793-1.88-1.19-4.047-1.19-6.5v0c0-3.24 0.573-5.867 1.72-7.88 1.147-2.007 2.767-3.483 4.86-4.43 2.093-0.94 4.563-1.41 7.41-1.41v0c0.98 0 1.79 0.047 2.43 0.14 0.647 0.1 1.107 0.19 1.38 0.27v0-9.11c0-0.387 0.08-0.687 0.24-0.9v0c0.687-0.893 1.69-1.86 3.01-2.9v0c0.227-0.167 0.43-0.25 0.61-0.25v0c0.213 0 0.417 0.083 0.61 0.25v0c0.7 0.533 1.29 1.037 1.77 1.51 0.48 0.473 0.89 0.937 1.23 1.39v0c0.167 0.213 0.25 0.513 0.25 0.9v0 33.21c0 0.307-0.107 0.57-0.32 0.79-0.213 0.22-0.483 0.33-0.81 0.33v0h-3.64c-0.26 0-0.49-0.037-0.69-0.11-0.207-0.073-0.4-0.217-0.58-0.43v0l-1.51-1.95h-0.17c-0.213 0.327-0.593 0.737-1.14 1.23-0.54 0.5-1.327 0.937-2.36 1.31-1.033 0.373-2.407 0.56-4.12 0.56zM106.2-5.64v0c1.467 0 2.62-0.277 3.46-0.83 0.833-0.553 1.43-1.253 1.79-2.1v0-10.23c-0.26-0.16-0.69-0.353-1.29-0.58-0.607-0.233-1.453-0.35-2.54-0.35v0c-2.02 0-3.533 0.66-4.54 1.98-1.013 1.32-1.52 3.093-1.52 5.32v0c0 2.313 0.423 4.023 1.27 5.13 0.847 1.107 1.97 1.66 3.37 1.66zM138.01 0.61v0c-2.747 0-5.14-0.443-7.18-1.33-2.033-0.887-3.61-2.267-4.73-4.14-1.127-1.873-1.69-4.29-1.69-7.25v0c0-4.44 1.14-7.8 3.42-10.08 2.28-2.28 5.307-3.42 9.08-3.42v0c2.46 0 4.54 0.44 6.24 1.32 1.7 0.88 2.993 2.093 3.88 3.64 0.887 1.547 1.33 3.31 1.33 5.29v0c0 1.94-0.493 3.293-1.48 4.06-0.993 0.76-2.443 1.14-4.35 1.14v0h-10.47c0.127 1.68 0.74 2.96 1.84 3.84 1.1 0.88 2.593 1.32 4.48 1.32v0c1.5 0 2.7-0.227 3.6-0.68 0.9-0.447 1.53-0.8 1.89-1.06v0c0.313-0.227 0.663-0.333 1.05-0.32v0c0.313 0 0.757 0.063 1.33 0.19 0.58 0.12 1.153 0.343 1.72 0.67v0c0.407 0.213 0.61 0.507 0.61 0.88v0c0 0.213-0.04 0.513-0.12 0.9v0c-0.047 0.227-0.127 0.557-0.24 0.99-0.113 0.433-0.26 0.837-0.44 1.21v0c-0.1 0.18-0.257 0.35-0.47 0.51v0c-0.32 0.227-0.843 0.527-1.57 0.9-0.727 0.38-1.717 0.71-2.97 0.99-1.253 0.287-2.84 0.43-4.76 0.43zM132.01-15.16v0h7.96c0.827 0 1.24-0.383 1.24-1.15v0c0-1.153-0.363-2.127-1.09-2.92-0.72-0.787-1.803-1.18-3.25-1.18v0c-1.58 0-2.74 0.503-3.48 1.51-0.74 1.013-1.2 2.26-1.38 3.74zM161.45-22.17v1.81h0.1c1.22-3.387 3.417-5.08 6.59-5.08v0c0.407 0 0.74 0.02 1 0.06 0.26 0.04 0.44 0.077 0.54 0.11v0c0.24 0.08 0.36 0.267 0.36 0.56v0 5.89c0 0.5-0.29 0.637-0.87 0.41v0c-0.2-0.08-0.483-0.163-0.85-0.25-0.367-0.093-0.873-0.14-1.52-0.14v0c-1.68 0-2.99 0.613-3.93 1.84-0.947 1.233-1.42 2.907-1.42 5.02v0 10.65c0 0.487-0.1 0.823-0.3 1.01-0.207 0.187-0.553 0.28-1.04 0.28v0h-5.03c-0.487 0-0.833-0.093-1.04-0.28-0.2-0.187-0.3-0.523-0.3-1.01v0-20.46c0-0.393 0.08-0.697 0.24-0.91v0c0.34-0.453 0.75-0.917 1.23-1.39 0.48-0.473 1.07-0.977 1.77-1.51v0c0.133-0.1 0.263-0.167 0.39-0.2 0.133-0.033 0.247-0.05 0.34-0.05v0c0.233 0 0.463 0.083 0.69 0.25v0c1.347 1.06 2.29 1.963 2.83 2.71v0c0.147 0.193 0.22 0.42 0.22 0.68z" fill="#000000" fill-rule="nonzero" stroke="none" stroke-width="1" stroke-linecap="butt" stroke-linejoin="miter" stroke-miterlimit="10" stroke-dasharray="" stroke-dashoffset="0" font-family="none" font-weight="none" font-size="none" text-anchor="none" style="mix-blend-mode: normal" data-fill-palette-color="primary" opacity="1"></path></g></svg></g></svg></g><g transform="matrix(1,0,0,1,0,222.488209844385)"><svg viewBox="0 0 375.74399999999997 34.181735234215886" height="34.181735234215886" width="375.74399999999997"><g transform="matrix(1,0,0,1,0,0)"><svg width="375.74399999999997" viewBox="3.49 -35.5 395.53 35.99" height="34.181735234215886" data-palette-color="#124076"><path d="M23.19-8.11L23.19-8.11Q23.19-6.32 22.52-4.76 21.85-3.2 20.68-2.03 19.51-0.85 17.94-0.18 16.38 0.49 14.6 0.49L14.6 0.49 12.11 0.49Q10.33 0.49 8.75-0.18 7.18-0.85 6.01-2.03 4.83-3.2 4.16-4.76 3.49-6.32 3.49-8.11L3.49-8.11 3.49-26.9Q3.49-28.69 4.16-30.25 4.83-31.81 6.01-32.98 7.18-34.16 8.75-34.83 10.33-35.5 12.11-35.5L12.11-35.5 14.6-35.5Q16.38-35.5 17.94-34.83 19.51-34.16 20.68-32.98 21.85-31.81 22.52-30.25 23.19-28.69 23.19-26.9L23.19-26.9 23.19-25.49 20.04-25 20.04-26.9Q20.04-28.08 19.6-29.09 19.17-30.1 18.41-30.86 17.65-31.62 16.64-32.06 15.63-32.5 14.45-32.5L14.45-32.5 12.26-32.5Q11.08-32.5 10.07-32.06 9.06-31.62 8.29-30.86 7.52-30.1 7.08-29.09 6.64-28.08 6.64-26.9L6.64-26.9 6.64-8.11Q6.64-6.93 7.08-5.92 7.52-4.91 8.29-4.14 9.06-3.37 10.07-2.93 11.08-2.49 12.26-2.49L12.26-2.49 14.45-2.49Q15.63-2.49 16.64-2.93 17.65-3.37 18.41-4.14 19.17-4.91 19.6-5.92 20.04-6.93 20.04-8.11L20.04-8.11 20.04-10.01 23.19-9.5 23.19-8.11ZM39.55-22.14L36.55-22.14Q35.64-22.14 34.85-21.8 34.06-21.46 33.47-20.87 32.88-20.29 32.54-19.49 32.2-18.7 32.2-17.8L32.2-17.8 32.2 0 29.2 0 29.2-25 30.2-25 31.83-22.46Q32.86-23.85 34.41-24.67 35.96-25.49 37.79-25.49L37.79-25.49 39.55-25.49 39.55-22.14ZM60.25 0L59.25 0 57.59-2.49Q56.56-1.15 55.02-0.33 53.49 0.49 51.66 0.49L51.66 0.49 50.9 0.49Q49.38 0.49 48.04-0.09 46.7-0.66 45.7-1.66 44.7-2.66 44.12-4 43.55-5.35 43.55-6.86L43.55-6.86 43.55-7.1Q43.55-8.62 44.12-9.96 44.7-11.3 45.7-12.3 46.7-13.31 48.04-13.88 49.38-14.45 50.9-14.45L50.9-14.45 57.25-14.45 57.25-18.31Q57.25-19.21 56.9-20.01 56.56-20.8 55.98-21.39 55.39-21.97 54.6-22.31 53.8-22.66 52.9-22.66L52.9-22.66 51.14-22.66Q50.24-22.66 49.45-22.31 48.65-21.97 48.07-21.39 47.48-20.8 47.14-20.01 46.8-19.21 46.8-18.31L46.8-18.31 46.8-17.41 43.79-17.9 43.79-18.14Q43.79-19.65 44.37-21 44.94-22.34 45.94-23.34 46.94-24.34 48.29-24.91 49.63-25.49 51.14-25.49L51.14-25.49 52.9-25.49Q54.41-25.49 55.76-24.91 57.1-24.34 58.1-23.34 59.1-22.34 59.68-21 60.25-19.65 60.25-18.14L60.25-18.14 60.25 0ZM57.25-6.69L57.25-12.11 50.9-12.11Q50-12.11 49.2-11.77 48.41-11.43 47.82-10.83 47.24-10.23 46.89-9.44 46.55-8.64 46.55-7.74L46.55-7.74 46.55-6.69Q46.55-5.79 46.89-4.99 47.24-4.2 47.82-3.61 48.41-3.03 49.2-2.69 50-2.34 50.9-2.34L50.9-2.34 52.9-2.34Q53.8-2.34 54.6-2.69 55.39-3.03 55.98-3.61 56.56-4.2 56.9-4.99 57.25-5.79 57.25-6.69L57.25-6.69ZM77.6-32.15L74.85-32.15Q74.09-32.15 73.44-31.87 72.8-31.59 72.31-31.1 71.82-30.62 71.54-29.96 71.26-29.3 71.26-28.54L71.26-28.54 71.26-25 77.09-25 77.09-22.14 71.26-22.14 71.26 0 68.25 0 68.25-22.14 63.74-22.14 63.74-25 68.25-25 68.25-28.39Q68.25-29.76 68.77-30.97 69.28-32.18 70.18-33.08 71.09-33.98 72.28-34.5 73.48-35.01 74.85-35.01L74.85-35.01 77.6-35.01 77.6-32.15ZM92.45 0L89.71 0Q88.34 0 87.14-0.51 85.93-1.03 85.04-1.93 84.15-2.83 83.62-4.03 83.1-5.22 83.1-6.59L83.1-6.59 83.1-22.14 78.6-22.14 78.6-25 83.1-25 83.1-31.01 86.1-31.49 86.1-25 92.45-25 92.45-22.14 86.1-22.14 86.1-6.45Q86.1-5.69 86.38-5.04 86.66-4.39 87.15-3.91 87.64-3.42 88.3-3.14 88.95-2.86 89.71-2.86L89.71-2.86 92.45-2.86 92.45 0ZM128.65-35.01L119.66-16.75 119.66 0 116.51 0 116.51-16.7 107.46-35.01 110.85-35.01 118.05-20.46 125.25-35.01 128.65-35.01ZM147.35-6.86L147.35-6.86Q147.35-5.35 146.77-4 146.2-2.66 145.2-1.66 144.2-0.66 142.85-0.09 141.51 0.49 140 0.49L140 0.49 138 0.49Q136.48 0.49 135.14-0.09 133.8-0.66 132.8-1.66 131.79-2.66 131.22-4 130.65-5.35 130.65-6.86L130.65-6.86 130.65-18.14Q130.65-19.65 131.22-21 131.79-22.34 132.8-23.34 133.8-24.34 135.14-24.91 136.48-25.49 138-25.49L138-25.49 140-25.49Q141.51-25.49 142.85-24.91 144.2-24.34 145.2-23.34 146.2-22.34 146.77-21 147.35-19.65 147.35-18.14L147.35-18.14 147.35-6.86ZM144.34-6.69L144.34-18.31Q144.34-19.21 144-20.01 143.66-20.8 143.07-21.39 142.49-21.97 141.69-22.31 140.9-22.66 140-22.66L140-22.66 138-22.66Q137.09-22.66 136.3-22.31 135.5-21.97 134.92-21.39 134.33-20.8 133.99-20.01 133.65-19.21 133.65-18.31L133.65-18.31 133.65-6.69Q133.65-5.79 133.99-4.99 134.33-4.2 134.92-3.61 135.5-3.03 136.3-2.69 137.09-2.34 138-2.34L138-2.34 140-2.34Q140.9-2.34 141.69-2.69 142.49-3.03 143.07-3.61 143.66-4.2 144-4.99 144.34-5.79 144.34-6.69L144.34-6.69ZM170.05 0L169.05 0 167.39-2.54Q166.36-1.15 164.82-0.33 163.29 0.49 161.45 0.49L161.45 0.49 160.7 0.49Q159.18 0.49 157.84-0.09 156.5-0.66 155.5-1.66 154.5-2.66 153.92-4 153.35-5.35 153.35-6.86L153.35-6.86 153.35-25 156.35-25 156.35-6.69Q156.35-5.79 156.69-4.99 157.04-4.2 157.62-3.61 158.21-3.03 159-2.69 159.79-2.34 160.7-2.34L160.7-2.34 162.7-2.34Q163.6-2.34 164.4-2.69 165.19-3.03 165.78-3.61 166.36-4.2 166.7-4.99 167.05-5.79 167.05-6.69L167.05-6.69 167.05-25 170.05-25 170.05 0ZM186.4-22.14L183.4-22.14Q182.5-22.14 181.7-21.8 180.91-21.46 180.32-20.87 179.74-20.29 179.4-19.49 179.05-18.7 179.05-17.8L179.05-17.8 179.05 0 176.05 0 176.05-25 177.05-25 178.69-22.46Q179.71-23.85 181.26-24.67 182.81-25.49 184.65-25.49L184.65-25.49 186.4-25.49 186.4-22.14ZM222.09-8.11L222.09-8.11Q222.09-6.32 221.42-4.76 220.75-3.2 219.58-2.03 218.41-0.85 216.84-0.18 215.28 0.49 213.5 0.49L213.5 0.49 211.01 0.49Q209.23 0.49 207.65-0.18 206.08-0.85 204.9-2.03 203.73-3.2 203.06-4.76 202.39-6.32 202.39-8.11L202.39-8.11 202.39-26.9Q202.39-28.69 203.06-30.25 203.73-31.81 204.9-32.98 206.08-34.16 207.65-34.83 209.23-35.5 211.01-35.5L211.01-35.5 213.5-35.5Q215.28-35.5 216.84-34.83 218.41-34.16 219.58-32.98 220.75-31.81 221.42-30.25 222.09-28.69 222.09-26.9L222.09-26.9 222.09-25.49 218.94-25 218.94-26.9Q218.94-28.08 218.5-29.09 218.06-30.1 217.31-30.86 216.55-31.62 215.54-32.06 214.52-32.5 213.35-32.5L213.35-32.5 211.15-32.5Q209.98-32.5 208.97-32.06 207.96-31.62 207.19-30.86 206.42-30.1 205.98-29.09 205.54-28.08 205.54-26.9L205.54-26.9 205.54-8.11Q205.54-6.93 205.98-5.92 206.42-4.91 207.19-4.14 207.96-3.37 208.97-2.93 209.98-2.49 211.15-2.49L211.15-2.49 213.35-2.49Q214.52-2.49 215.54-2.93 216.55-3.37 217.31-4.14 218.06-4.91 218.5-5.92 218.94-6.93 218.94-8.11L218.94-8.11 218.94-10.01 222.09-9.5 222.09-8.11ZM244.79 0L243.79 0 242.13-2.54Q241.11-1.15 239.57-0.33 238.03 0.49 236.2 0.49L236.2 0.49 235.44 0.49Q233.93 0.49 232.59-0.09 231.24-0.66 230.24-1.66 229.24-2.66 228.67-4 228.1-5.35 228.1-6.86L228.1-6.86 228.1-25 231.1-25 231.1-6.69Q231.1-5.79 231.44-4.99 231.78-4.2 232.37-3.61 232.95-3.03 233.75-2.69 234.54-2.34 235.44-2.34L235.44-2.34 237.45-2.34Q238.35-2.34 239.14-2.69 239.94-3.03 240.52-3.61 241.11-4.2 241.45-4.99 241.79-5.79 241.79-6.69L241.79-6.69 241.79-25 244.79-25 244.79 0ZM261.15-22.14L258.15-22.14Q257.24-22.14 256.45-21.8 255.66-21.46 255.07-20.87 254.48-20.29 254.14-19.49 253.8-18.7 253.8-17.8L253.8-17.8 253.8 0 250.8 0 250.8-25 251.8-25 253.43-22.46Q254.46-23.85 256.01-24.67 257.56-25.49 259.39-25.49L259.39-25.49 261.15-25.49 261.15-22.14ZM275.5-22.14L272.5-22.14Q271.6-22.14 270.8-21.8 270.01-21.46 269.42-20.87 268.84-20.29 268.5-19.49 268.15-18.7 268.15-17.8L268.15-17.8 268.15 0 265.15 0 265.15-25 266.15-25 267.79-22.46Q268.81-23.85 270.36-24.67 271.91-25.49 273.74-25.49L273.74-25.49 275.5-25.49 275.5-22.14ZM283.75-31.01L280.26-31.01 280.26-35.01 283.75-35.01 283.75-31.01ZM283.51 0L280.5 0 280.5-25 283.51-25 283.51 0ZM307.21-6.86L307.21-6.86Q307.21-5.35 306.64-4 306.06-2.66 305.06-1.66 304.06-0.66 302.72-0.09 301.38 0.49 299.86 0.49L299.86 0.49 297.86 0.49Q296.35 0.49 295-0.09 293.66-0.66 292.66-1.66 291.66-2.66 291.09-4 290.51-5.35 290.51-6.86L290.51-6.86 290.51-18.14Q290.51-19.65 291.09-21 291.66-22.34 292.66-23.34 293.66-24.34 295-24.91 296.35-25.49 297.86-25.49L297.86-25.49 299.86-25.49Q301.38-25.49 302.72-24.91 304.06-24.34 305.06-23.34 306.06-22.34 306.64-21 307.21-19.65 307.21-18.14L307.21-18.14 307.21-17.14 304.21-16.65 304.21-18.31Q304.21-19.21 303.87-20.01 303.52-20.8 302.94-21.39 302.35-21.97 301.56-22.31 300.77-22.66 299.86-22.66L299.86-22.66 297.86-22.66Q296.96-22.66 296.16-22.31 295.37-21.97 294.78-21.39 294.2-20.8 293.86-20.01 293.51-19.21 293.51-18.31L293.51-18.31 293.51-6.69Q293.51-5.79 293.86-4.99 294.2-4.2 294.78-3.61 295.37-3.03 296.16-2.69 296.96-2.34 297.86-2.34L297.86-2.34 299.86-2.34Q300.77-2.34 301.56-2.69 302.35-3.03 302.94-3.61 303.52-4.2 303.87-4.99 304.21-5.79 304.21-6.69L304.21-6.69 304.21-8.35 307.21-7.86 307.21-6.86ZM329.91 0L328.91 0 327.25-2.54Q326.23-1.15 324.69-0.33 323.15 0.49 321.32 0.49L321.32 0.49 320.56 0.49Q319.05 0.49 317.71-0.09 316.36-0.66 315.36-1.66 314.36-2.66 313.79-4 313.21-5.35 313.21-6.86L313.21-6.86 313.21-25 316.22-25 316.22-6.69Q316.22-5.79 316.56-4.99 316.9-4.2 317.49-3.61 318.07-3.03 318.87-2.69 319.66-2.34 320.56-2.34L320.56-2.34 322.56-2.34Q323.47-2.34 324.26-2.69 325.06-3.03 325.64-3.61 326.23-4.2 326.57-4.99 326.91-5.79 326.91-6.69L326.91-6.69 326.91-25 329.91-25 329.91 0ZM339.92 0L336.92 0 336.92-35.01 339.92-35.01 339.92 0ZM363.62 0L362.62 0 360.96-2.54Q359.94-1.15 358.4-0.33 356.86 0.49 355.03 0.49L355.03 0.49 354.27 0.49Q352.76 0.49 351.42-0.09 350.07-0.66 349.07-1.66 348.07-2.66 347.5-4 346.93-5.35 346.93-6.86L346.93-6.86 346.93-25 349.93-25 349.93-6.69Q349.93-5.79 350.27-4.99 350.61-4.2 351.2-3.61 351.78-3.03 352.58-2.69 353.37-2.34 354.27-2.34L354.27-2.34 356.28-2.34Q357.18-2.34 357.97-2.69 358.77-3.03 359.35-3.61 359.94-4.2 360.28-4.99 360.62-5.79 360.62-6.69L360.62-6.69 360.62-25 363.62-25 363.62 0ZM399.02 0L396.02 0 396.02-18.31Q396.02-19.21 395.68-20.01 395.34-20.8 394.75-21.39 394.16-21.97 393.37-22.31 392.58-22.66 391.67-22.66L391.67-22.66 390.18-22.66Q389.28-22.66 388.49-22.31 387.69-21.97 387.1-21.39 386.5-20.8 386.16-20.01 385.81-19.21 385.81-18.31L385.81-18.31 385.81 0 382.84 0 382.84-18.31Q382.84-19.21 382.49-20.01 382.15-20.8 381.55-21.39 380.96-21.97 380.16-22.31 379.37-22.66 378.47-22.66L378.47-22.66 376.98-22.66Q376.07-22.66 375.28-22.31 374.49-21.97 373.9-21.39 373.31-20.8 372.97-20.01 372.63-19.21 372.63-18.31L372.63-18.31 372.63 0 369.63 0 369.63-25 370.63-25 372.26-22.46Q373.29-23.85 374.84-24.67 376.39-25.49 378.22-25.49L378.22-25.49 378.47-25.49Q380.59-25.49 382.3-24.44 384.01-23.39 384.94-21.66L384.94-21.66Q385.4-22.51 386.08-23.22 386.77-23.93 387.6-24.43 388.43-24.93 389.4-25.21 390.38-25.49 391.43-25.49L391.43-25.49 391.67-25.49Q393.19-25.49 394.53-24.91 395.87-24.34 396.87-23.34 397.87-22.34 398.45-21 399.02-19.65 399.02-18.14L399.02-18.14 399.02 0Z" opacity="1" transform="matrix(1,0,0,1,0,0)" fill="#000000" class="slogan-text-1" data-fill-palette-color="secondary" id="text-1"></path></svg></g></svg></g></svg></g></svg></g><g transform="matrix(1,0,0,1,417.50136558281264,11.884183105338181)"><svg viewBox="0 0 244.43136 232.90157886792454" height="232.90157886792454" width="244.43136"><g><svg xmlns="http://www.w3.org/2000/svg" xmlns:xlink="http://www.w3.org/1999/xlink" version="1.1" x="0" y="0" viewBox="10.937 10.584 39.75 37.875" enable-background="new 0 0 62.666 58.667" xml:space="preserve" height="232.90157886792454" width="244.43136" class="icon-icon-0" data-fill-palette-color="accent" id="icon-0"><g fill="#124076" data-fill-palette-color="accent"><g fill="#124076" data-fill-palette-color="accent"><path d="M13.437 22.084H20.187C21.566 22.084 22.687 20.962 22.687 19.584V13.084C22.687 11.706 21.566 10.584 20.187 10.584H13.437A2.503 2.503 0 0 0 10.937 13.084V19.584C10.937 20.962 12.058 22.084 13.437 22.084M11.937 13.084C11.937 12.257 12.61 11.584 13.437 11.584H20.187C21.014 11.584 21.687 12.257 21.687 13.084V19.584C21.687 20.411 21.014 21.084 20.187 21.084H13.437C12.61 21.084 11.937 20.411 11.937 19.584z" fill="#000000" data-fill-palette-color="accent"></path><path d="M27.437 22.084H34.187C35.566 22.084 36.687 20.962 36.687 19.584V13.084C36.687 11.706 35.566 10.584 34.187 10.584H27.437A2.503 2.503 0 0 0 24.937 13.084V19.584C24.937 20.962 26.058 22.084 27.437 22.084M25.937 13.084C25.937 12.257 26.61 11.584 27.437 11.584H34.187C35.014 11.584 35.687 12.257 35.687 13.084V19.584C35.687 20.411 35.014 21.084 34.187 21.084H27.437C26.61 21.084 25.937 20.411 25.937 19.584z" fill="#000000" data-fill-palette-color="accent"></path><path d="M48.187 10.584H41.437A2.503 2.503 0 0 0 38.937 13.084V19.584C38.937 20.962 40.058 22.084 41.437 22.084H48.187C49.566 22.084 50.687 20.962 50.687 19.584V13.084C50.687 11.706 49.565 10.584 48.187 10.584M49.687 19.584C49.687 20.411 49.014 21.084 48.187 21.084H41.437C40.61 21.084 39.937 20.411 39.937 19.584V13.084C39.937 12.257 40.61 11.584 41.437 11.584H48.187C49.014 11.584 49.687 12.257 49.687 13.084z" fill="#000000" data-fill-palette-color="accent"></path><path d="M13.437 35.084H20.187C21.566 35.084 22.687 33.962 22.687 32.584V26.084C22.687 24.706 21.566 23.584 20.187 23.584H13.437A2.503 2.503 0 0 0 10.937 26.084V32.584C10.937 33.962 12.058 35.084 13.437 35.084M11.937 26.084C11.937 25.257 12.61 24.584 13.437 24.584H20.187C21.014 24.584 21.687 25.257 21.687 26.084V32.584C21.687 33.411 21.014 34.084 20.187 34.084H13.437C12.61 34.084 11.937 33.411 11.937 32.584z" fill="#000000" data-fill-palette-color="accent"></path><path d="M27.437 35.084H34.187C35.566 35.084 36.687 33.962 36.687 32.584V26.084C36.687 24.706 35.566 23.584 34.187 23.584H27.437A2.503 2.503 0 0 0 24.937 26.084V32.584C24.937 33.962 26.058 35.084 27.437 35.084M25.937 26.084C25.937 25.257 26.61 24.584 27.437 24.584H34.187C35.014 24.584 35.687 25.257 35.687 26.084V32.584C35.687 33.411 35.014 34.084 34.187 34.084H27.437C26.61 34.084 25.937 33.411 25.937 32.584z" fill="#000000" data-fill-palette-color="accent"></path><path d="M48.187 23.584H41.437A2.503 2.503 0 0 0 38.937 26.084V45.959C38.937 47.337 40.058 48.459 41.437 48.459H48.187C49.566 48.459 50.687 47.337 50.687 45.959V26.084C50.687 24.706 49.565 23.584 48.187 23.584M49.687 45.959C49.687 46.786 49.014 47.459 48.187 47.459H41.437C40.61 47.459 39.937 46.786 39.937 45.959V26.084C39.937 25.257 40.61 24.584 41.437 24.584H48.187C49.014 24.584 49.687 25.257 49.687 26.084z" fill="#000000" data-fill-palette-color="accent"></path><path d="M13.437 48.084H20.187C21.566 48.084 22.687 46.962 22.687 45.584V39.084C22.687 37.706 21.566 36.584 20.187 36.584H13.437A2.503 2.503 0 0 0 10.937 39.084V45.584C10.937 46.962 12.058 48.084 13.437 48.084M11.937 39.084C11.937 38.257 12.61 37.584 13.437 37.584H20.187C21.014 37.584 21.687 38.257 21.687 39.084V45.584C21.687 46.411 21.014 47.084 20.187 47.084H13.437C12.61 47.084 11.937 46.411 11.937 45.584z" fill="#000000" data-fill-palette-color="accent"></path><path d="M27.437 48.084H34.187C35.566 48.084 36.687 46.962 36.687 45.584V39.084C36.687 37.706 35.566 36.584 34.187 36.584H27.437A2.503 2.503 0 0 0 24.937 39.084V45.584C24.937 46.962 26.058 48.084 27.437 48.084M25.937 39.084C25.937 38.257 26.61 37.584 27.437 37.584H34.187C35.014 37.584 35.687 38.257 35.687 39.084V45.584C35.687 46.411 35.014 47.084 34.187 47.084H27.437C26.61 47.084 25.937 46.411 25.937 45.584z" fill="#000000" data-fill-palette-color="accent"></path></g></g></svg></g></svg></g></svg></g><defs></defs></svg><rect width="395.52" height="153.36618474045756" fill="none" stroke="none" visibility="hidden"></rect></g></svg></g></svg>